# xmcd
#
# Track frame offsets:
#	150
#	16538
#	31223
#	45135
#	59306
#	73218
#	85616
#	100228
#	114714
#	128518
#	141716
#	155515
#	169117
#
# Disc length: 2426 seconds
#
# Revision: 0
# Processed by: cddbd v1.5.2PL0 Copyright (c) Steve Scherf et al.
# Submitted via: EasyCDDAExtractor 11.5.0.1
#
DISCID=a209780d
DTITLE=Szabó József - Vallomás - Túl lenni mindenen
DYEAR=2007
DGENRE=
TTITLE0=Túl lenni mindenen
TTITLE1=Ha minden véget ér
TTITLE2=Nem tudok már boldog lenni
TTITLE3=Hogy tudnék mást szeretni
TTITLE4=Szent a béke
TTITLE5=Most szeretnék boldog lenni
TTITLE6=Ki jön elém?
TTITLE7=Miért ne kezdjük újra
TTITLE8=Játsz tovább a szívemmel
TTITLE9=Szállj-repülj
TTITLE10=Elveszett álmok
TTITLE11=Ki vagyok én itt melletted
TTITLE12=Mama ugye...
EXTD=
EXTT0=
EXTT1=
EXTT2=
EXTT3=
EXTT4=
EXTT5=
EXTT6=
EXTT7=
EXTT8=
EXTT9=
EXTT10=
EXTT11=
EXTT12=
PLAYORDER=
